<svg width="10" height="73" viewBox="0 0 10 73" fill="none" xmlns="http://www.w3.org/2000/svg">
<path d="M5.69193 0.570708C5.45483 0.333616 5.07043 0.333616 4.83334 0.570708L0.969713 4.43434C0.732622 4.67143 0.732622 5.05583 0.969713 5.29292C1.2068 5.53001 1.59121 5.53001 1.8283 5.29292L5.26263 1.85858L8.69697 5.29292C8.93406 5.53001 9.31846 5.53001 9.55556 5.29292C9.79265 5.05583 9.79265 4.67143 9.55556 4.43434L5.69193 0.570708ZM4.83334 72.7142C5.07043 72.9513 5.45483 72.9513 5.69193 72.7142L9.55556 68.8506C9.79265 68.6135 9.79265 68.2291 9.55556 67.992C9.31846 67.7549 8.93406 67.7549 8.69697 67.992L5.26263 71.4264L1.8283 67.992C1.59121 67.7549 1.2068 67.7549 0.969713 67.992C0.732622 68.2291 0.732622 68.6135 0.969713 68.8506L4.83334 72.7142ZM4.65552 1L4.65552 72.285H5.86975L5.86975 1H4.65552Z" fill="white"/>
</svg>
