<svg width="10" height="51" viewBox="0 0 10 51" fill="none" xmlns="http://www.w3.org/2000/svg">
<path d="M5.69193 0.364653C5.45483 0.127562 5.07043 0.127562 4.83334 0.364653L0.969713 4.22828C0.732622 4.46537 0.732622 4.84978 0.969713 5.08687C1.2068 5.32396 1.59121 5.32396 1.8283 5.08687L5.26263 1.65253L8.69697 5.08687C8.93406 5.32396 9.31846 5.32396 9.55556 5.08687C9.79265 4.84978 9.79265 4.46537 9.55556 4.22828L5.69193 0.364653ZM4.83334 50.2232C5.07043 50.4603 5.45483 50.4603 5.69193 50.2232L9.55556 46.3596C9.79265 46.1225 9.79265 45.7381 9.55556 45.501C9.31846 45.2639 8.93406 45.2639 8.69697 45.501L5.26263 48.9354L1.8283 45.501C1.59121 45.2639 1.2068 45.2639 0.969713 45.501C0.732622 45.7381 0.732622 46.1225 0.969713 46.3596L4.83334 50.2232ZM4.65552 0.793945L4.65552 49.7939H5.86975L5.86975 0.793945H4.65552Z" fill="white"/>
</svg>
