<svg width="1280" height="748" viewBox="0 0 1280 748" fill="none" xmlns="http://www.w3.org/2000/svg">
<path d="M1280.89 0.279297H640.889L651.463 18.2878C763.092 208.401 954.807 337.738 1172.89 370.057V370.057H1280.89V0.279297Z" fill="#670000"/>
<path d="M640.889 6.94531L690.572 76.6227C730.131 132.103 777.494 181.581 831.193 223.526L841.359 231.466C908.525 283.93 985.441 322.531 1067.64 345.03L1106.85 355.762C1162.77 371.067 1221.16 375.169 1278.67 367.834V367.834" stroke="#0C0C0C" stroke-width="1.77778"/>
<path d="M738.222 7.83398L748.481 32.8945C782.533 116.079 837.704 188.938 908.54 244.268V244.268C964.469 287.954 1028.8 319.646 1097.52 337.366L1134.67 346.945L1278.22 367.834" stroke="#0C0C0C" stroke-width="1.77778"/>
<path d="M811.111 8.2793L830.568 52.9006C861.656 124.195 908.133 187.729 966.666 238.946V238.946V238.946C1032.54 286.584 1106.18 322.42 1184.31 344.857L1197.78 348.724L1277.78 367.835" stroke="#0C0C0C" stroke-width="1.77778"/>
<path d="M889.778 8.2793L920.165 82.5124C941.141 133.751 972.941 179.853 1013.39 217.659V217.659C1031.38 234.478 1050.95 249.528 1071.83 262.601L1111.08 287.181C1154.28 314.231 1199.78 337.409 1247.05 356.445L1276.44 368.279" stroke="#0C0C0C" stroke-width="1.77778"/>
<path d="M956.444 6.50195L972.803 46.4631C1003.02 120.283 1048.84 186.701 1107.11 241.169V241.169L1139.74 270.058C1172.17 298.76 1206.64 325.055 1242.9 348.732L1275.56 370.057" stroke="#0C0C0C" stroke-width="1.77778"/>
<path d="M1039.11 7.39062L1058.28 54.2186C1086.87 124.049 1124.23 189.956 1169.46 250.348L1184.89 270.946L1277.33 368.28" stroke="#0C0C0C" stroke-width="1.77778"/>
<path d="M1132.44 6.50195L1147.52 61.6875C1165.27 126.613 1190.32 189.313 1222.22 248.583L1224.44 252.724L1278.22 366.946" stroke="#0C0C0C" stroke-width="1.77778"/>
<path d="M1280 365.611L1273.19 371.962C1204.62 435.922 1158.67 520.407 1142.22 612.722V612.722L1128.44 747.406H1280V365.611Z" fill="#670000"/>
<path d="M1276.89 367.871L1247.68 399.261C1210.33 439.388 1181.28 486.491 1162.17 537.87V537.87C1148.93 573.473 1140.63 610.721 1137.48 648.576L1129.33 746.729" stroke="#0C0C0C" stroke-width="1.77778"/>
<path d="M1277.78 367.645L1270.45 387.451C1252.26 436.653 1238.46 487.369 1229.21 539.005L1216.44 610.276L1200.44 745.599" stroke="#0C0C0C" stroke-width="1.77778"/>
<path d="M0 365.611L6.80778 371.962C75.3755 435.922 121.334 520.407 137.778 612.722V612.722L151.556 747.406H0V365.611Z" fill="#670000"/>
<path d="M3.11108 367.871L32.3233 399.261C69.6664 439.388 98.7227 486.491 117.827 537.87V537.87C131.065 573.473 139.372 610.721 142.515 648.576L150.667 746.729" stroke="#0C0C0C" stroke-width="1.77778"/>
<path d="M2.22223 367.645L9.54577 387.451C27.7388 436.653 41.5406 487.369 50.7896 539.005L63.5556 610.276L79.5556 745.599" stroke="#0C0C0C" stroke-width="1.77778"/>
<path d="M0 0.279297H640L629.426 18.2878C517.797 208.401 326.082 337.738 108 370.057V370.057H0V0.279297Z" fill="#670000"/>
<path d="M640 6.94531L590.317 76.6227C550.757 132.103 503.395 181.581 449.696 223.526L439.53 231.466C372.364 283.93 295.448 322.531 213.244 345.03L174.035 355.762C118.119 371.067 59.7291 375.169 2.22223 367.834V367.834" stroke="#0C0C0C" stroke-width="1.77778"/>
<path d="M542.667 7.83398L532.408 32.8945C498.356 116.079 443.185 188.938 372.349 244.268V244.268C316.42 287.954 252.089 319.646 183.369 337.366L146.222 346.945L2.66669 367.834" stroke="#0C0C0C" stroke-width="1.77778"/>
<path d="M469.778 8.2793L450.321 52.9006C419.233 124.195 372.756 187.729 314.222 238.946V238.946V238.946C248.352 286.584 174.709 322.42 96.5762 344.857L83.1111 348.724L3.11108 367.835" stroke="#0C0C0C" stroke-width="1.77778"/>
<path d="M391.111 8.2793L360.723 82.5124C339.748 133.751 307.948 179.853 267.499 217.659V217.659C249.504 234.478 229.934 249.528 209.059 262.601L169.808 287.181C126.613 314.231 81.1118 337.409 33.8352 356.445L4.44446 368.279" stroke="#0C0C0C" stroke-width="1.77778"/>
<path d="M324.444 6.50195L308.086 46.4631C277.867 120.283 232.052 186.701 173.778 241.169V241.169L141.144 270.058C108.721 298.76 74.244 325.055 37.9884 348.732L5.33331 370.057" stroke="#0C0C0C" stroke-width="1.77778"/>
<path d="M241.778 7.39062L222.608 54.2186C194.023 124.049 156.662 189.956 111.428 250.348L96 270.946L3.55554 368.28" stroke="#0C0C0C" stroke-width="1.77778"/>
<path d="M148.444 6.50195L133.365 61.6875C115.623 126.613 90.5655 189.313 58.6726 248.583L56.4445 252.724L2.66669 366.946" stroke="#0C0C0C" stroke-width="1.77778"/>
</svg>
