<svg width="511" height="87" viewBox="0 0 511 87" fill="none" xmlns="http://www.w3.org/2000/svg">
<path d="M13.9682 72.4015L2.48365 69.3615C1.60909 69.13 1 68.3387 1 67.434V58.0312V35.6827C1 33.4848 1.87311 31.3769 3.42726 29.8227C4.88186 28.3681 6.82547 27.5065 8.8801 27.4055L49.1288 25.426C51.9257 25.2885 54.6907 24.7698 57.3472 23.8843C60.8984 22.7005 64.2038 20.8787 67.101 18.5083L71.4886 14.9184C82.4896 5.91759 96.2658 1 110.48 1H366.978C368.824 1 370.667 1.13101 372.494 1.39204L380.688 2.5625C386.367 4.11132 391.706 6.709 396.429 10.2215L419.75 27.5625L491.643 33.4872C500.355 34.2052 504.711 34.5642 507.356 37.4353C510 40.3065 510 44.6775 510 53.4196V59.5938V63.0938C510 65.068 510 66.0552 509.861 66.88C509.153 71.0808 505.862 74.3721 501.661 75.0798C500.836 75.2188 499.849 75.2188 497.875 75.2188H463.5V65.8438V65.1057C463.5 62.0056 462.691 58.9592 461.153 56.2676C460.635 55.3618 460.039 54.5032 459.371 53.7017L459.196 53.4916C457.397 51.333 455.171 49.5701 452.658 48.3135C451.039 47.5039 449.319 46.9139 447.544 46.5589L447.186 46.4872C444.034 45.8569 440.785 45.8914 437.648 46.5887L435.375 47.0938L434.719 47.3123C430.576 48.6935 426.976 51.352 424.438 54.9062C422.389 57.9785 421.174 61.5301 420.911 65.2131L420.531 70.5312V75.2188L85.375 76V69.7609L84.6182 64.0796C84.0918 60.1281 82.4583 56.4062 79.9062 53.3438L78.3015 51.739C76.7771 50.2146 75.017 48.946 73.0888 47.9819C71.9075 47.3913 70.6707 46.9187 69.3965 46.5712L69.0234 46.4695C64.8957 45.3437 60.5418 45.3437 56.4141 46.4695L56.041 46.5712C54.7668 46.9187 53.53 47.3913 52.3487 47.9819C50.4205 48.946 48.6604 50.2146 47.136 51.739L46.3725 52.5025C45.8124 53.0626 45.2927 53.6618 44.8174 54.2955C43.7379 55.7349 42.8974 57.339 42.3284 59.0459L41.625 61.1562L40.8438 65.0625C40.8438 68.7037 41.1022 72.3404 41.6171 75.945L41.625 76C32.2893 76 22.993 74.7904 13.9682 72.4015Z" fill="#0C0C0C"/>
<path d="M1 58.0312V67.434C1 68.3387 1.60909 69.13 2.48365 69.3615L13.9682 72.4015C22.993 74.7904 32.2893 76 41.625 76V76L41.6171 75.945C41.1022 72.3404 40.8438 68.7037 40.8438 65.0625V65.0625M1 58.0312L14.7234 61.6639C23.2469 63.9201 32.0267 65.0625 40.8438 65.0625V65.0625M1 58.0312V35.6827C1 33.4848 1.87311 31.3769 3.42726 29.8227V29.8227C4.88186 28.3681 6.82547 27.5065 8.8801 27.4055L49.1288 25.426C51.9257 25.2885 54.6907 24.7698 57.3472 23.8843V23.8843C60.8984 22.7005 64.2038 20.8787 67.101 18.5083L71.4886 14.9184C82.4896 5.91759 96.2658 1 110.48 1H366.978C368.824 1 370.667 1.13101 372.494 1.39204L380.688 2.5625V2.5625C386.367 4.11132 391.706 6.709 396.429 10.2215L419.75 27.5625M40.8438 65.0625L41.625 61.1562L42.3284 59.0459C42.8974 57.339 43.7379 55.7349 44.8174 54.2955V54.2955C45.2927 53.6618 45.8124 53.0626 46.3725 52.5025L47.136 51.739C48.6604 50.2146 50.4205 48.946 52.3487 47.9819V47.9819C53.53 47.3913 54.7668 46.9187 56.041 46.5712L56.4141 46.4695C60.5418 45.3437 64.8957 45.3437 69.0234 46.4695L69.3965 46.5712C70.6707 46.9187 71.9075 47.3913 73.0888 47.9819V47.9819C75.017 48.946 76.7771 50.2146 78.3015 51.739L79.9062 53.3438V53.3438C82.4583 56.4062 84.0918 60.1281 84.6182 64.0796L85.375 69.7609M419.75 27.5625L491.643 33.4872C500.355 34.2052 504.711 34.5642 507.356 37.4353C510 40.3065 510 44.6775 510 53.4196V59.5938M419.75 27.5625L390.062 6.46875H377.562L401.781 27.5625M419.75 27.5625H401.781M510 59.5938H499.602C495.929 59.5938 492.338 60.6811 489.281 62.7188V62.7188C486.225 64.7564 482.634 65.8438 478.96 65.8438H463.5M510 59.5938V63.0938C510 65.068 510 66.0552 509.861 66.88C509.153 71.0808 505.862 74.3721 501.661 75.0798C500.836 75.2188 499.849 75.2188 497.875 75.2188V75.2188H463.5V65.8438M463.5 65.8438V65.1056C463.5 62.0056 462.691 58.9592 461.153 56.2676V56.2676C460.635 55.3618 460.039 54.5032 459.371 53.7017L459.196 53.4916C457.397 51.333 455.171 49.5701 452.658 48.3135V48.3135C451.039 47.5039 449.319 46.9139 447.544 46.5589L447.186 46.4872C444.034 45.8569 440.785 45.8914 437.648 46.5887L435.375 47.0938L434.719 47.3123C430.576 48.6935 426.976 51.352 424.438 54.9062V54.9062M424.438 54.9062V54.9062C422.389 57.9785 421.174 61.5301 420.911 65.2131L420.531 70.5312M424.438 54.9062H88.5M420.531 70.5312V75.2188L85.375 76V69.7609M420.531 70.5312L401.781 70.4893M85.375 69.7609H90.0625M401.781 27.5625V70.4893M336.156 5.6875V70.3359M336.156 70.3359L401.781 70.4893M336.156 70.3359L131.469 69.8577M131.469 69.8577V5.6875M131.469 69.8577L90.0625 69.7609M96.3125 6.46875L78.3438 27.5625V45.5312L78.4604 45.6012C80.9773 47.1114 83.2995 48.9245 85.375 51V51L88.5 54.9062M88.5 54.9062V54.9062C89.5349 58.0109 90.0625 61.2622 90.0625 64.5348V69.7609M338.5 6.46875H373.656L397.094 27.5625H338.5V6.46875ZM326 6.46875V27.5625H239.281V6.46875H326ZM228.344 6.46875V27.5625H141.625V6.46875H228.344ZM129.125 6.46875V27.5625H83.0312L99.4375 6.46875H129.125Z" stroke="white" stroke-linejoin="round"/>
<circle cx="62.7188" cy="67.4062" r="19.0312" fill="#0C0C0C" stroke="white"/>
<circle cx="442.406" cy="67.4062" r="19.0312" fill="#0C0C0C" stroke="white"/>
</svg>
