<svg width="488" height="187" viewBox="0 0 488 187" fill="none" xmlns="http://www.w3.org/2000/svg">
<path d="M87.8705 57.5603C87.8705 81.4666 68.4278 100.852 44.4373 100.852C20.4467 100.852 1.00397 81.4666 1.00397 57.5603C1.00397 33.6539 20.4467 14.2686 44.4373 14.2686C68.4278 14.2686 87.8705 33.6539 87.8705 57.5603Z" stroke="white" stroke-width="2"/>
<line x1="82.2749" y1="80.0385" x2="451.996" y2="185.765" stroke="white" stroke-width="2"/>
<path d="M487.16 1.42694C487.256 0.883094 486.893 0.364746 486.349 0.26918C485.805 0.173615 485.287 0.53702 485.19 1.08087L487.16 1.42694ZM485.19 1.08087L452.421 186.417L454.391 186.763L487.16 1.42694L485.19 1.08087Z" fill="white"/>
<path d="M455.193 26.062C455.196 25.5097 454.751 25.0595 454.199 25.0564C453.647 25.0533 453.196 25.4986 453.193 26.0508L455.193 26.062ZM454.295 186.328L455.193 26.062L453.193 26.0508L452.295 186.317L454.295 186.328Z" fill="white"/>
<path d="M453.295 73.3866V73.3866C460.132 72.5584 467.066 73.5945 473.362 76.3853L473.734 76.5503" stroke="white" stroke-width="2"/>
</svg>
