<svg width="491" height="8" viewBox="0 0 491 8" fill="none" xmlns="http://www.w3.org/2000/svg">
<path d="M154.875 3.64547C154.679 3.84073 154.679 4.15731 154.875 4.35258L158.057 7.53456C158.252 7.72982 158.568 7.72982 158.764 7.53456C158.959 7.3393 158.959 7.02271 158.764 6.82745L155.935 3.99902L158.764 1.1706C158.959 0.975334 158.959 0.658752 158.764 0.46349C158.568 0.268227 158.252 0.268227 158.057 0.46349L154.875 3.64547ZM176.016 4.35258C176.211 4.15731 176.211 3.84073 176.016 3.64547L172.834 0.46349C172.639 0.268227 172.322 0.268227 172.127 0.46349C171.931 0.658752 171.931 0.975334 172.127 1.1706L174.955 3.99902L172.127 6.82745C171.931 7.02271 171.931 7.3393 172.127 7.53456C172.322 7.72982 172.639 7.72982 172.834 7.53456L176.016 4.35258ZM155.228 4.49902H175.662V3.49902H155.228V4.49902Z" fill="white"/>
<path d="M307.686 3.64547C307.491 3.84073 307.491 4.15731 307.686 4.35258L310.868 7.53456C311.063 7.72982 311.38 7.72982 311.575 7.53456C311.771 7.3393 311.771 7.02271 311.575 6.82745L308.747 3.99902L311.575 1.1706C311.771 0.975334 311.771 0.658752 311.575 0.46349C311.38 0.268227 311.063 0.268227 310.868 0.46349L307.686 3.64547ZM333.27 4.35258C333.465 4.15731 333.465 3.84073 333.27 3.64547L330.088 0.46349C329.892 0.268227 329.576 0.268227 329.381 0.46349C329.185 0.658752 329.185 0.975334 329.381 1.1706L332.209 3.99902L329.381 6.82745C329.185 7.02271 329.185 7.3393 329.381 7.53456C329.576 7.72982 329.892 7.72982 330.088 7.53456L333.27 4.35258ZM308.04 4.49902H332.916V3.49902H308.04V4.49902Z" fill="white"/>
<path d="M461.386 3.64547C461.191 3.84073 461.191 4.15731 461.386 4.35258L464.568 7.53456C464.764 7.72982 465.08 7.72982 465.275 7.53456C465.471 7.3393 465.471 7.02271 465.275 6.82745L462.447 3.99902L465.275 1.1706C465.471 0.975334 465.471 0.658752 465.275 0.46349C465.08 0.268227 464.764 0.268227 464.568 0.46349L461.386 3.64547ZM490.524 4.35258C490.719 4.15731 490.719 3.84073 490.524 3.64547L487.342 0.46349C487.146 0.268227 486.83 0.268227 486.634 0.46349C486.439 0.658752 486.439 0.975334 486.634 1.1706L489.463 3.99902L486.634 6.82745C486.439 7.02271 486.439 7.3393 486.634 7.53456C486.83 7.72982 487.146 7.72982 487.342 7.53456L490.524 4.35258ZM461.74 4.49902H490.17V3.49902H461.74V4.49902Z" fill="white"/>
<path d="M0.286065 3.64547C0.0908024 3.84073 0.0908024 4.15731 0.286065 4.35258L3.46805 7.53456C3.66331 7.72982 3.97989 7.72982 4.17515 7.53456C4.37041 7.3393 4.37041 7.02271 4.17515 6.82745L1.34672 3.99902L4.17515 1.1706C4.37041 0.975334 4.37041 0.658752 4.17515 0.46349C3.97989 0.268227 3.66331 0.268227 3.46805 0.46349L0.286065 3.64547ZM18.762 4.35258C18.9572 4.15731 18.9572 3.84073 18.762 3.64547L15.58 0.46349C15.3847 0.268227 15.0681 0.268227 14.8729 0.46349C14.6776 0.658752 14.6776 0.975334 14.8729 1.1706L17.7013 3.99902L14.8729 6.82745C14.6776 7.02271 14.6776 7.3393 14.8729 7.53456C15.0681 7.72982 15.3847 7.72982 15.58 7.53456L18.762 4.35258ZM0.639618 4.49902H18.4084V3.49902H0.639618V4.49902Z" fill="white"/>
</svg>
