<svg width="513" height="629" viewBox="0 0 513 629" fill="none" xmlns="http://www.w3.org/2000/svg">
<mask id="path-1-inside-1_498_241" fill="white">
<path d="M0.555542 579.34L0.555542 237.118L512.556 237.118V579.34H0.555542Z"/>
</mask>
<path d="M0.555542 579.34L0.555542 237.118L512.556 237.118V579.34H0.555542Z" fill="#670000"/>
<path d="M0.555542 579.34H-0.333347V580.229H0.555542V579.34ZM512.556 579.34V580.229H513.444V579.34H512.556ZM1.44443 579.34L1.44443 237.118H-0.333347L-0.333347 579.34H1.44443ZM511.667 237.118V579.34H513.444V237.118H511.667ZM512.556 578.451H0.555542V580.229H512.556V578.451Z" fill="#FCD356" mask="url(#path-1-inside-1_498_241)"/>
<path d="M60.3643 1.27843H459.622L512.002 237.278H1.12533L60.3643 1.27843Z" fill="#670000" stroke="#FCD356" stroke-width="0.888889"/>
<path d="M452.489 11.501L503.667 237.279H11.2222L70.9297 11.501H452.489Z" fill="#0C0C0C"/>
<path d="M11.2222 237.278H503.667V237.278C386.666 402.35 143.514 407.655 19.4256 247.843L11.2222 237.278Z" fill="#0C0C0C"/>
<line x1="259.034" y1="12.5469" x2="259.034" y2="349.875" stroke="#FCD356" stroke-width="1.13778" stroke-dasharray="2.28 2.28"/>
<line x1="295.927" y1="12.6022" x2="262.985" y2="349.931" stroke="#FCD356" stroke-width="1.13778"/>
<line x1="332.615" y1="12.8677" x2="268.048" y2="350.196" stroke="#FCD356" stroke-width="3.41333"/>
<line x1="369.699" y1="12.7009" x2="274.825" y2="350.029" stroke="#FCD356" stroke-width="1.13778" stroke-dasharray="4.55 4.55"/>
<line x1="408.716" y1="15.4673" x2="286.422" y2="348.524" stroke="#FCD356" stroke-width="4.55111" stroke-linecap="round" stroke-dasharray="5.69 5.69"/>
<line x1="447.925" y1="13.0298" x2="289.802" y2="350.358" stroke="#FCD356" stroke-width="2.27556" stroke-dasharray="3.41 3.41"/>
<line x1="462.04" y1="66.3939" x2="299.964" y2="345.744" stroke="#FCD356" stroke-width="4.55111"/>
<line x1="474.176" y1="112.033" x2="308.147" y2="345.264" stroke="#FCD356" stroke-width="2.27556"/>
<line x1="482.906" y1="149.955" x2="316.877" y2="344.973" stroke="#FCD356" stroke-width="1.13778"/>
<line x1="490.783" y1="181.611" x2="335.301" y2="338.421" stroke="#FCD356" stroke-width="1.13778" stroke-dasharray="2.28 2.28"/>
<line x1="498.992" y1="218.998" x2="352.728" y2="334.955" stroke="#FCD356" stroke-width="2.27556"/>
<line y1="-0.568889" x2="337.328" y2="-0.568889" transform="matrix(0 1 1 0 259.783 12.5469)" stroke="#FCD356" stroke-width="1.13778" stroke-dasharray="2.28 2.28"/>
<line y1="-0.568889" x2="338.933" y2="-0.568889" transform="matrix(0.0971939 0.995265 0.995265 -0.0971939 222.888 12.5469)" stroke="#FCD356" stroke-width="1.13778"/>
<line y1="-1.70667" x2="343.452" y2="-1.70667" transform="matrix(0.187994 0.98217 0.98217 -0.187994 187.31 12.5469)" stroke="#FCD356" stroke-width="3.41333"/>
<line y1="-0.568889" x2="350.416" y2="-0.568889" transform="matrix(0.270746 0.962651 0.962651 -0.270746 149.097 12.5469)" stroke="#FCD356" stroke-width="1.13778" stroke-dasharray="4.55 4.55"/>
<line x1="2.27556" y1="-2.27556" x2="357.075" y2="-2.27556" transform="matrix(0.344686 0.938718 0.938718 -0.344686 110.884 12.5469)" stroke="#FCD356" stroke-width="4.55111" stroke-linecap="round" stroke-dasharray="5.69 5.69"/>
<line y1="-1.13778" x2="372.55" y2="-1.13778" transform="matrix(0.424434 0.905459 0.905459 -0.424434 71.3535 12.5469)" stroke="#FCD356" stroke-width="2.27556" stroke-dasharray="3.41 3.41"/>
<line y1="-2.27556" x2="322.963" y2="-2.27556" transform="matrix(0.50184 0.86496 0.86496 -0.50184 58.1765 65.252)" stroke="#FCD356" stroke-width="4.55111"/>
<line y1="-1.13778" x2="286.291" y2="-1.13778" transform="matrix(0.579931 0.814665 0.814665 -0.579931 44.9996 111.373)" stroke="#FCD356" stroke-width="2.27556"/>
<line y1="-0.568889" x2="256.12" y2="-0.568889" transform="matrix(0.648246 0.761431 0.761431 -0.648246 35.7758 149.586)" stroke="#FCD356" stroke-width="1.13778"/>
<line y1="-0.568889" x2="220.826" y2="-0.568889" transform="matrix(0.704091 0.710109 0.710109 -0.704091 27.8697 181.21)" stroke="#FCD356" stroke-width="1.13778" stroke-dasharray="2.28 2.28"/>
<line y1="-1.13778" x2="186.652" y2="-1.13778" transform="matrix(0.783616 0.621245 0.621245 -0.783616 19.9635 218.106)" stroke="#FCD356" stroke-width="2.27556"/>
<line x1="11.2222" y1="237.279" x2="504.556" y2="237.279" stroke="#FCD356" stroke-width="0.888889"/>
<g filter="url(#filter0_d_498_241)">
<rect x="86.505" y="107.55" width="341.333" height="512" fill="#670000"/>
<rect x="99.9094" y="120.066" width="316.302" height="486.969" stroke="#FCD356" stroke-width="2.27556"/>
<path d="M227.076 594.255V595.021C227.076 595.213 227.045 595.403 226.985 595.585C226.6 596.739 227.459 597.931 228.676 597.931H286.881C287.703 597.931 288.296 597.145 288.07 596.355C287.985 596.058 288.015 595.74 288.153 595.463L288.768 594.233C289.17 593.429 289.25 592.502 288.992 591.641C288.693 590.644 287.97 589.83 287.015 589.417L284.899 588.499C281.794 587.154 279.784 584.093 279.784 580.71V570.308C279.784 569.899 279.891 569.498 280.094 569.144C280.603 568.253 280.474 567.134 279.776 566.382L278.709 565.234C277.76 564.212 277.463 562.745 277.94 561.435L278.044 561.148C278.229 560.638 278.258 560.085 278.127 559.559C277.891 558.617 277.171 557.872 276.237 557.605L274.216 557.028C273.852 556.924 273.48 556.853 273.103 556.815L269.049 556.41C268.253 556.33 267.478 556.106 266.763 555.748L266.178 555.456C264.664 554.699 263.603 553.263 263.325 551.593C263.233 551.039 263.229 550.473 263.315 549.918L263.551 548.384C263.695 547.444 263.929 546.52 264.249 545.624L264.388 545.235C264.943 543.681 265.297 542.061 265.44 540.417L265.807 536.196V528.916L265.477 525.624C265.309 523.941 265.337 522.246 265.56 520.57C265.724 519.341 265.992 518.129 266.362 516.946L267.263 514.065L267.642 512.044C267.971 510.289 268.136 508.507 268.136 506.721C268.136 505.213 268.018 503.706 267.783 502.216L267.263 498.922L266.785 494.865C266.716 494.274 266.754 493.676 266.898 493.099C267.136 492.149 267.651 491.292 268.379 490.637L269.2 489.898C269.846 489.317 270.394 488.637 270.825 487.883C271.167 487.285 271.431 486.646 271.612 485.982L272.213 483.779L273.087 479.702L273.96 475.626L274.581 472.523C274.749 471.681 274.834 470.825 274.834 469.967V468.386C274.834 467.402 274.605 466.431 274.165 465.551C273.47 464.162 272.29 463.076 270.849 462.5L269.43 461.932C268.956 461.743 268.498 461.519 268.057 461.262L265.224 459.609L264.376 458.992C262.896 457.916 262.021 456.197 262.021 454.368L262.147 453.107C262.257 452.008 262.458 450.92 262.749 449.854L262.91 449.263C263.093 448.591 263.221 447.903 263.29 447.209L263.382 446.288C263.445 445.66 263.414 445.026 263.29 444.407C262.863 442.268 261.37 440.498 259.334 439.715L258.818 439.516L257.487 439.184C256.133 438.845 254.699 439.197 253.656 440.124C253.034 440.677 252.589 441.402 252.378 442.206L251.592 445.192C251.362 446.064 251.246 446.961 251.246 447.863V449.083C251.246 450.066 251.497 451.033 251.974 451.892L252.072 452.067C252.485 452.812 252.702 453.65 252.702 454.502C252.702 456.23 251.812 457.836 250.347 458.752L245.713 461.648L242.617 463.565C240.74 464.726 239.598 466.777 239.598 468.984C239.598 469.906 239.798 470.818 240.185 471.655L240.472 472.277C241.047 473.524 241.345 474.881 241.345 476.254V480.835C241.345 481.822 241.479 482.806 241.744 483.758L242.172 485.298C242.579 486.763 243.486 488.039 244.736 488.904C245.935 489.734 246.82 490.944 247.249 492.338L247.309 492.531C247.601 493.481 247.69 494.481 247.571 495.468L247.044 499.808C246.741 502.312 246.782 504.845 247.165 507.338L247.358 508.592C247.62 510.297 248.006 511.98 248.514 513.628C249.553 517.006 250.082 520.521 250.082 524.055V524.548C249.694 529.775 249.863 535.028 250.584 540.22L250.955 542.894L252.083 547.97C252.478 549.747 252.117 551.608 251.086 553.108C250.072 554.582 248.501 555.578 246.735 555.866L241.504 556.717C238.894 557.142 236.977 559.396 236.977 562.041V562.799C236.977 563.845 236.533 564.843 235.755 565.543C234.719 566.475 234.297 567.912 234.664 569.258L235.501 572.326C235.708 573.086 235.813 573.869 235.813 574.656V584.925C235.813 585.675 235.205 586.283 234.455 586.283C234.2 586.283 233.951 586.355 233.735 586.49L230.133 588.741C228.231 589.929 227.076 592.013 227.076 594.255Z" fill="#FCD356"/>
</g>
<defs>
<filter id="filter0_d_498_241" x="77.2631" y="98.3079" width="360.706" height="530.484" filterUnits="userSpaceOnUse" color-interpolation-filters="sRGB">
<feFlood flood-opacity="0" result="BackgroundImageFix"/>
<feColorMatrix in="SourceAlpha" type="matrix" values="0 0 0 0 0 0 0 0 0 0 0 0 0 0 0 0 0 0 127 0" result="hardAlpha"/>
<feOffset/>
<feGaussianBlur stdDeviation="4.62094"/>
<feComposite in2="hardAlpha" operator="out"/>
<feColorMatrix type="matrix" values="0 0 0 0 0.0487142 0 0 0 0 0.0487142 0 0 0 0 0.0487142 0 0 0 0.5 0"/>
<feBlend mode="normal" in2="BackgroundImageFix" result="effect1_dropShadow_498_241"/>
<feBlend mode="normal" in="SourceGraphic" in2="effect1_dropShadow_498_241" result="shape"/>
</filter>
</defs>
</svg>
