<svg width="230" height="230" viewBox="0 0 230 230" fill="none" xmlns="http://www.w3.org/2000/svg">
<path d="M229.589 115C229.589 178.287 178.286 229.59 115 229.59C51.7141 229.59 0.410723 178.287 0.410723 115C0.410723 51.7143 51.7141 0.410715 115 0.410715C178.286 0.410715 229.589 51.7143 229.589 115Z" stroke="#FCD356" stroke-width="0.82143"/>
<mask id="mask0_756_1625" style="mask-type:alpha" maskUnits="userSpaceOnUse" x="0" y="0" width="230" height="231">
<ellipse cx="115" cy="115" rx="115" ry="115" fill="#D9D9D9"/>
</mask>
<g mask="url(#mask0_756_1625)">
<mask id="path-3-inside-1_756_1625" fill="white">
<path d="M65.8788 148.58C57.8288 159.314 52.2704 170.43 49.2038 181.93C46.1371 193.047 44.6038 204.547 44.6038 216.43C44.6038 224.864 45.9454 233.68 48.6288 242.88C51.3121 251.697 55.5288 259.747 61.2788 267.03C67.0288 274.314 74.5038 280.255 83.7038 284.855C92.9039 289.455 103.829 291.755 116.479 291.755C137.179 291.755 153.662 285.239 165.929 272.205C178.196 259.172 184.329 242.88 184.329 223.33C184.329 214.514 181.071 205.697 174.554 196.88C168.037 188.064 159.987 179.63 150.404 171.58C140.821 163.53 130.662 156.055 119.929 149.155C109.579 142.255 100.379 136.313 92.3289 131.33C84.6622 126.73 75.6538 121.172 65.3038 114.655C55.3371 108.138 45.7538 100.855 36.5537 92.8051C27.3537 84.7551 19.4954 75.7467 12.9787 65.78C6.46203 55.43 3.20369 44.1217 3.20369 31.855C3.20369 19.2049 6.0787 7.51326 11.8287 -3.22009C17.9621 -13.9534 26.2037 -23.3451 36.5537 -31.3952C46.9038 -39.4452 58.9788 -45.7702 72.7788 -50.3702C86.5788 -54.9702 101.337 -57.2702 117.054 -57.2702C150.787 -57.2702 177.046 -49.9868 195.829 -35.4201C214.612 -21.2368 224.004 -2.83676 224.004 19.7799C224.004 28.5966 222.087 36.455 218.254 43.355C214.421 49.8717 209.246 55.8133 202.729 61.18C196.596 66.1634 189.312 70.7634 180.879 74.9801C172.829 78.8134 164.587 82.6467 156.154 86.4801L150.979 81.8801C159.412 71.9134 165.354 62.5217 168.804 53.705C172.637 44.8883 174.554 34.9216 174.554 23.805C174.554 10.7716 172.637 -0.153412 168.804 -8.9701C165.354 -17.7868 160.754 -24.8785 155.004 -30.2451C149.254 -35.6118 142.737 -39.4452 135.454 -41.7452C128.171 -44.0452 120.887 -45.1952 113.604 -45.1952C94.8205 -45.1952 79.8705 -39.6368 68.7538 -28.5202C58.0205 -17.4034 52.6538 -2.83675 52.6538 15.1799C52.6538 23.9966 55.7205 32.43 61.8538 40.48C68.3705 48.53 76.4205 56.3884 86.0038 64.055C95.5872 71.3384 105.937 78.6217 117.054 85.9051C128.171 92.8051 138.521 99.5134 148.104 106.03C158.837 112.93 169.571 120.213 180.304 127.88C191.421 135.547 201.196 143.597 209.629 152.03C218.446 160.464 225.537 169.472 230.904 179.055C236.271 188.639 238.954 198.989 238.954 210.105C238.954 223.522 235.312 235.98 228.029 247.48C221.129 258.98 211.737 268.947 199.854 277.38C188.354 285.814 174.937 292.522 159.604 297.505C144.654 302.105 128.937 304.405 112.454 304.405C96.7372 304.405 81.5955 302.489 67.0288 298.655C52.4621 294.822 39.6204 289.455 28.5037 282.555C17.7704 275.272 9.14537 266.647 2.62869 256.68C-3.88799 246.714 -7.14633 235.405 -7.14633 222.755C-7.14633 213.172 -5.22966 204.355 -1.39632 196.305C2.82036 188.255 7.99536 180.972 14.1287 174.455C20.6454 167.939 27.9287 162.189 35.9788 157.205C44.4121 151.839 52.6538 147.047 60.7038 142.83L65.8788 148.58Z"/>
</mask>
<path d="M65.8788 148.58L66.536 149.073L66.9412 148.533L66.4894 148.031L65.8788 148.58ZM49.2038 181.93L49.9957 182.149L49.9975 182.142L49.2038 181.93ZM48.6288 242.88L47.8402 243.11L47.8429 243.12L48.6288 242.88ZM61.2788 267.03L60.6341 267.539L61.2788 267.03ZM83.7038 284.855L84.0712 284.121L84.0712 284.121L83.7038 284.855ZM165.929 272.205L165.331 271.642L165.331 271.642L165.929 272.205ZM174.554 196.88L173.893 197.369L173.893 197.369L174.554 196.88ZM150.404 171.58L150.932 170.951L150.932 170.951L150.404 171.58ZM119.929 149.155L119.473 149.839L119.485 149.846L119.929 149.155ZM92.3289 131.33L92.7613 130.632L92.7515 130.626L92.3289 131.33ZM65.3038 114.655L64.8542 115.343L64.8661 115.35L65.3038 114.655ZM36.5537 92.8051L36.0128 93.4233L36.0128 93.4233L36.5537 92.8051ZM12.9787 65.78L12.2835 66.2178L12.2912 66.2296L12.9787 65.78ZM11.8287 -3.22009L11.1155 -3.62763L11.1099 -3.61788L11.1046 -3.60799L11.8287 -3.22009ZM36.5537 -31.3952L36.0494 -32.0436L36.0494 -32.0436L36.5537 -31.3952ZM72.7788 -50.3702L72.5191 -51.1495L72.5191 -51.1495L72.7788 -50.3702ZM195.829 -35.4201L195.326 -34.771L195.334 -34.7646L195.829 -35.4201ZM218.254 43.355L218.962 43.7715L218.967 43.7628L218.972 43.7539L218.254 43.355ZM202.729 61.18L203.247 61.8176L203.251 61.8141L202.729 61.18ZM180.879 74.9801L181.232 75.7217L181.239 75.7183L181.246 75.7148L180.879 74.9801ZM156.154 86.4801L155.608 87.094L156.008 87.449L156.494 87.2279L156.154 86.4801ZM150.979 81.8801L150.352 81.3495L149.834 81.9614L150.433 82.494L150.979 81.8801ZM168.804 53.705L168.051 53.3775L168.045 53.3915L168.039 53.4057L168.804 53.705ZM168.804 -8.9701L168.039 -8.67077L168.045 -8.65656L168.051 -8.64257L168.804 -8.9701ZM155.004 -30.2451L155.564 -30.8456L155.564 -30.8456L155.004 -30.2451ZM135.454 -41.7452L135.701 -42.5285L135.701 -42.5285L135.454 -41.7452ZM68.7538 -28.5202L68.173 -29.101L68.1679 -29.0959L68.1629 -29.0907L68.7538 -28.5202ZM61.8538 40.48L61.2004 40.9778L61.2077 40.9874L61.2154 40.9968L61.8538 40.48ZM86.0038 64.055L85.4907 64.6965L85.4987 64.7028L85.5068 64.709L86.0038 64.055ZM117.054 85.9051L116.604 86.5922L116.612 86.5977L116.621 86.603L117.054 85.9051ZM148.104 106.03L147.642 106.709L147.651 106.715L147.66 106.721L148.104 106.03ZM180.304 127.88L179.827 128.549L179.838 128.556L180.304 127.88ZM209.629 152.03L209.048 152.611L209.055 152.617L209.061 152.624L209.629 152.03ZM230.904 179.055L230.187 179.457L230.187 179.457L230.904 179.055ZM228.029 247.48L227.335 247.041L227.33 247.049L227.325 247.058L228.029 247.48ZM199.854 277.38L199.379 276.71L199.368 276.718L199.854 277.38ZM159.604 297.505L159.846 298.291L159.858 298.287L159.604 297.505ZM67.0288 298.655L66.8198 299.45L67.0288 298.655ZM28.5037 282.555L28.0425 283.235L28.0563 283.245L28.0705 283.253L28.5037 282.555ZM2.62869 256.68L1.94118 257.13L1.94118 257.13L2.62869 256.68ZM-1.39632 196.305L-2.12397 195.924L-2.13123 195.938L-2.13795 195.952L-1.39632 196.305ZM14.1287 174.455L13.5479 173.874L13.5391 173.883L13.5305 173.892L14.1287 174.455ZM35.9788 157.205L36.4111 157.904L36.4198 157.898L35.9788 157.205ZM60.7038 142.83L61.3144 142.281L60.8877 141.807L60.3226 142.103L60.7038 142.83ZM65.2217 148.087C57.1165 158.894 51.5071 170.105 48.4101 181.719L49.9975 182.142C53.0338 170.756 58.541 159.733 66.536 149.073L65.2217 148.087ZM48.4119 181.712C45.325 192.902 43.7823 204.475 43.7823 216.43H45.4252C45.4252 204.619 46.9492 193.192 49.9956 182.149L48.4119 181.712ZM43.7823 216.43C43.7823 224.951 45.138 233.846 47.8402 243.11L49.4174 242.65C46.7529 233.515 45.4252 224.776 45.4252 216.43H43.7823ZM47.8429 243.12C50.5563 252.035 54.8211 260.176 60.6341 267.539L61.9235 266.521C56.2365 259.318 52.0679 251.359 49.4146 242.641L47.8429 243.12ZM60.6341 267.539C66.4666 274.927 74.0404 280.942 83.3365 285.59L84.0712 284.121C74.9673 279.569 67.591 273.7 61.9235 266.521L60.6341 267.539ZM83.3365 285.59C92.6738 290.259 103.73 292.577 116.479 292.577V290.934C103.928 290.934 93.1339 288.652 84.0712 284.121L83.3365 285.59ZM116.479 292.577C137.367 292.577 154.081 285.993 166.527 272.768L165.331 271.642C153.244 284.485 136.991 290.934 116.479 290.934V292.577ZM166.527 272.768C178.951 259.568 185.15 243.069 185.15 223.33H183.508C183.508 242.692 177.44 258.776 165.331 271.642L166.527 272.768ZM185.15 223.33C185.15 214.299 181.81 205.315 175.215 196.392L173.893 197.369C180.331 206.079 183.508 214.728 183.508 223.33H185.15ZM175.215 196.392C168.655 187.517 160.558 179.037 150.932 170.951L149.876 172.209C159.416 180.223 167.42 188.611 173.893 197.369L175.215 196.392ZM150.932 170.951C141.322 162.878 131.135 155.383 120.373 148.464L119.485 149.846C130.189 156.728 140.319 164.182 149.876 172.209L150.932 170.951ZM120.385 148.472C110.029 141.568 100.821 135.621 92.7612 130.632L91.8965 132.029C99.9367 137.006 109.129 142.942 119.473 149.839L120.385 148.472ZM92.7515 130.626C85.0913 126.03 76.0882 120.475 65.7415 113.96L64.8661 115.35C75.2195 121.869 84.2331 127.431 91.9062 132.035L92.7515 130.626ZM65.7533 113.968C55.8195 107.472 46.2666 100.212 37.0947 92.1869L36.0128 93.4233C45.2409 101.498 54.8547 108.804 64.8543 115.343L65.7533 113.968ZM37.0947 92.1869C27.9495 84.1848 20.1409 75.2329 13.6662 65.3305L12.2912 66.2296C18.8499 76.2605 26.758 85.3253 36.0128 93.4233L37.0947 92.1869ZM13.6738 65.3424C7.23993 55.1238 4.02512 43.9673 4.02512 31.855H2.38226C2.38226 44.2761 5.68413 55.7362 12.2836 66.2177L13.6738 65.3424ZM4.02512 31.855C4.02512 19.3348 6.86921 7.77714 12.5528 -2.83219L11.1046 -3.60799C5.28818 7.24939 2.38226 19.0751 2.38226 31.855H4.02512ZM12.5419 -2.81255C18.6188 -13.4472 26.7875 -22.7586 37.0581 -30.7468L36.0494 -32.0436C25.6199 -23.9317 17.3053 -14.4597 11.1155 -3.62763L12.5419 -2.81255ZM37.0581 -30.7468C47.327 -38.7337 59.3173 -45.0171 73.0386 -49.5909L72.5191 -51.1495C58.6403 -46.5232 46.4806 -40.1566 36.0494 -32.0436L37.0581 -30.7468ZM73.0386 -49.5909C86.7484 -54.1608 101.418 -56.4487 117.054 -56.4487V-58.0916C101.256 -58.0916 86.4093 -55.7795 72.5191 -51.1495L73.0386 -49.5909ZM117.054 -56.4487C150.68 -56.4487 176.736 -49.1877 195.326 -34.771L196.332 -36.0693C177.356 -50.786 150.895 -58.0916 117.054 -58.0916V-56.4487ZM195.334 -34.7646C213.922 -20.7291 223.183 -2.56712 223.183 19.7799H224.826C224.826 -3.10639 215.303 -21.7445 196.324 -36.0757L195.334 -34.7646ZM223.183 19.7799C223.183 28.4737 221.294 36.1919 217.536 42.9561L218.972 43.7539C222.881 36.7181 224.826 28.7196 224.826 19.7799H223.183ZM217.546 42.9385C213.767 49.3633 208.658 55.2333 202.207 60.5459L203.251 61.8141C209.834 56.3934 215.075 50.3801 218.962 43.7715L217.546 42.9385ZM202.211 60.5425C196.132 65.4816 188.901 70.0505 180.512 74.2453L181.246 75.7148C189.723 71.4763 197.059 66.8451 203.247 61.8175L202.211 60.5425ZM180.526 74.2384C172.48 78.0696 164.243 81.9009 155.814 85.7323L156.494 87.2279C164.931 83.3926 173.178 79.5572 181.232 75.7217L180.526 74.2384ZM156.7 85.8661L151.525 81.2661L150.433 82.494L155.608 87.094L156.7 85.8661ZM151.606 82.4107C160.077 72.3992 166.076 62.9304 169.569 54.0043L168.039 53.4057C164.632 62.113 158.747 71.4276 150.352 81.3495L151.606 82.4107ZM169.557 54.0325C173.442 45.0976 175.375 35.0169 175.375 23.805H173.733C173.733 34.8264 171.833 44.6791 168.051 53.3775L169.557 54.0325ZM175.375 23.805C175.375 10.6967 173.449 -0.34782 169.557 -9.29762L168.051 -8.64257C171.826 0.0409969 173.733 10.8465 173.733 23.805H175.375ZM169.569 -9.26942C166.083 -18.1775 161.421 -25.3798 155.564 -30.8456L154.444 -29.6446C160.087 -24.3771 164.625 -17.396 168.039 -8.67077L169.569 -9.26942ZM155.564 -30.8456C149.728 -36.2932 143.105 -40.1905 135.701 -42.5285L135.207 -40.9619C142.37 -38.6998 148.78 -34.9304 154.444 -29.6446L155.564 -30.8456ZM135.701 -42.5285C128.342 -44.8525 120.975 -46.0166 113.604 -46.0166V-44.3737C120.799 -44.3737 127.999 -43.2378 135.207 -40.9619L135.701 -42.5285ZM113.604 -46.0166C94.6481 -46.0166 79.4731 -40.4011 68.173 -29.101L69.3347 -27.9393C80.2679 -38.8725 94.9929 -44.3737 113.604 -44.3737V-46.0166ZM68.1629 -29.0907C57.2573 -17.7956 51.8324 -3.01168 51.8324 15.1799H53.4752C53.4752 -2.66182 58.7837 -17.0113 69.3448 -27.9496L68.1629 -29.0907ZM51.8324 15.1799C51.8324 24.2024 54.9749 32.8068 61.2004 40.9778L62.5072 39.9822C56.466 32.0531 53.4752 23.7908 53.4752 15.1799H51.8324ZM61.2154 40.9968C67.7753 49.1003 75.8694 56.9994 85.4907 64.6965L86.517 63.4136C76.9716 55.7773 68.9657 47.9597 62.4923 39.9631L61.2154 40.9968ZM85.5068 64.709C95.1069 72.0051 105.473 79.2994 116.604 86.5922L117.504 85.218C106.402 77.9441 96.0675 70.6717 86.5009 63.401L85.5068 64.709ZM116.621 86.603C127.729 93.4977 138.069 100.2 147.642 106.709L148.566 105.351C138.972 98.827 128.612 92.1124 117.487 85.2072L116.621 86.603ZM147.66 106.721C158.381 113.614 169.104 120.889 179.827 128.549L180.781 127.212C170.038 119.538 159.293 112.247 148.548 105.339L147.66 106.721ZM179.838 128.556C190.919 136.198 200.654 144.217 209.048 152.611L210.21 151.449C201.737 142.977 191.923 134.895 180.77 127.204L179.838 128.556ZM209.061 152.624C217.826 161.007 224.865 169.952 230.187 179.457L231.621 178.654C226.21 168.992 219.066 159.92 210.197 151.437L209.061 152.624ZM230.187 179.457C235.485 188.916 238.133 199.127 238.133 210.105H239.776C239.776 198.85 237.057 188.361 231.621 178.654L230.187 179.457ZM238.133 210.105C238.133 223.364 234.537 235.67 227.335 247.041L228.723 247.92C236.088 236.29 239.776 223.68 239.776 210.105H238.133ZM227.325 247.058C220.488 258.452 211.178 268.337 199.379 276.711L200.329 278.05C212.297 269.557 221.77 259.509 228.733 247.903L227.325 247.058ZM199.368 276.718C187.947 285.093 174.611 291.764 159.35 296.724L159.858 298.287C175.264 293.28 188.761 286.534 200.34 278.043L199.368 276.718ZM159.362 296.72C144.495 301.295 128.86 303.584 112.454 303.584V305.227C129.015 305.227 144.813 302.916 159.846 298.291L159.362 296.72ZM112.454 303.584C96.8047 303.584 81.7334 301.676 67.2379 297.861L66.8198 299.45C81.4576 303.302 96.6697 305.227 112.454 305.227V303.584ZM67.2379 297.861C52.7386 294.045 39.9745 288.708 28.9369 281.858L28.0705 283.253C39.2663 290.202 52.1857 295.599 66.8198 299.45L67.2379 297.861ZM28.965 281.876C18.3134 274.648 9.7683 266.099 3.3162 256.231L1.94118 257.13C8.52244 267.195 17.2273 275.896 28.0425 283.235L28.965 281.876ZM3.3162 256.231C-3.10755 246.406 -6.3249 235.256 -6.3249 222.755H-7.96776C-7.96776 235.555 -4.66843 247.021 1.94118 257.13L3.3162 256.231ZM-6.3249 222.755C-6.3249 213.285 -4.43162 204.59 -0.65468 196.658L-2.13795 195.952C-6.02769 204.121 -7.96776 213.059 -7.96776 222.755H-6.3249ZM-0.668668 196.686C3.51386 188.702 8.64556 181.48 14.7269 175.018L13.5305 173.892C7.34517 180.464 2.12685 187.809 -2.12397 195.924L-0.668668 196.686ZM14.7095 175.036C21.1802 168.565 28.4135 162.855 36.4111 157.904L35.5464 156.507C27.444 161.523 20.1106 167.312 13.5479 173.874L14.7095 175.036ZM36.4198 157.898C44.8356 152.543 53.0573 147.763 61.0849 143.558L60.3226 142.103C52.2503 146.331 43.9887 151.134 35.5377 156.512L36.4198 157.898ZM60.0932 143.38L65.2682 149.13L66.4894 148.031L61.3144 142.281L60.0932 143.38Z" fill="#FCD356" mask="url(#path-3-inside-1_756_1625)"/>
</g>
</svg>
