<svg width="414" height="460" viewBox="0 0 414 460" fill="none" xmlns="http://www.w3.org/2000/svg">
<g clip-path="url(#clip0_495_178)">
<rect x="0.333313" y="133.252" width="412.619" height="52.2089" rx="4.21039" fill="#D9D9D9"/>
<rect x="183.065" y="123.567" width="34.5252" height="93.4708" transform="rotate(-30 183.065 123.567)" fill="#0C0C0C"/>
<rect x="106.435" y="121.884" width="34.5252" height="93.4708" transform="rotate(-30 106.435 121.884)" fill="#0C0C0C"/>
<rect x="259.694" y="123.567" width="34.5252" height="93.4708" transform="rotate(-30 259.694 123.567)" fill="#0C0C0C"/>
<rect x="336.323" y="123.567" width="34.5252" height="93.4708" transform="rotate(-30 336.323 123.567)" fill="#0C0C0C"/>
</g>
<g clip-path="url(#clip1_495_178)">
<rect x="1.06079" y="101.665" width="412.619" height="52.2089" rx="4.21039" transform="rotate(-14.4581 1.06079 101.665)" fill="#D9D9D9"/>
<rect x="175.587" y="46.666" width="34.5252" height="93.4708" transform="rotate(-44.4581 175.587 46.666)" fill="#0C0C0C"/>
<rect x="100.964" y="64.166" width="34.5252" height="93.4708" transform="rotate(-44.4581 100.964 64.166)" fill="#0C0C0C"/>
<rect x="249.79" y="27.5342" width="34.5252" height="93.4708" transform="rotate(-44.4581 249.79 27.5342)" fill="#0C0C0C"/>
<rect x="323.992" y="8.40137" width="34.5252" height="93.4708" transform="rotate(-44.4581 323.992 8.40137)" fill="#0C0C0C"/>
</g>
<path d="M0.333313 185.531H412.952V442.365C412.952 451.667 405.412 459.207 396.11 459.207H17.1749C7.87354 459.207 0.333313 451.667 0.333313 442.365V185.531Z" fill="#0C0C0C"/>
<path d="M0.333374 80.6301C0.333374 80.4786 0.446228 80.3508 0.596585 80.3321L12.8804 78.8007C78.0546 70.6758 135.607 121.499 135.607 187.178V187.178C135.607 187.329 135.485 187.451 135.334 187.451H4.54375C2.21842 187.451 0.333374 185.566 0.333374 183.24V80.6301Z" fill="#0C0C0C"/>
<ellipse cx="17.1375" cy="168.901" rx="8.40209" ry="8.43196" fill="#D9D9D9"/>
<ellipse cx="17.1376" cy="96.387" rx="8.40209" ry="8.43196" fill="#D9D9D9"/>
<ellipse cx="112.081" cy="168.901" rx="8.40209" ry="8.43196" fill="#D9D9D9"/>
<defs>
<clipPath id="clip0_495_178">
<rect width="411.703" height="52.2781" fill="white" transform="translate(0.333313 133.251)"/>
</clipPath>
<clipPath id="clip1_495_178">
<rect width="405.638" height="52.2781" fill="white" transform="translate(1.06067 101.665) rotate(-14.4581)"/>
</clipPath>
</defs>
</svg>
